<svg xmlns="http://www.w3.org/2000/svg" viewBox="0 0 346.74 384"><defs><style>.cls-1{fill:#fff;}</style></defs><g id="Capa_2" data-name="Capa 2"><g id="Capa_1-2" data-name="Capa 1"><path class="cls-1" d="M167.35,384c-4.43-1.24-9-1.75-13.34-3.51-19.38-7.93-31.43-22-35.41-42.62-.54-2.83-1.65-3.47-4.35-3.46q-35,.16-70.08,0C18.28,334.41-1,314.29,0,288.54c.82-19.87,17.77-37.85,38-40.28,1-.12,2-.22,3-.32,8.24-.81,8.53-1.13,8.53-9.26,0-23.61-.44-47.23.09-70.83,1.22-53.33,26.38-91.45,74.59-114,5.83-2.72,7.35-5.19,7.14-11.43C130.68,21.85,145.77,4.21,166,.69A14.9,14.9,0,0,0,168.1,0h10.5c6.79,1.65,13.5,3.51,19.21,7.81,13.29,10,19.12,23.35,17.4,39.87-.25,2.46.34,3.32,2.58,4.3,44.65,19.55,70.61,53.6,78.38,101.61a114.35,114.35,0,0,1,1,18.32q-.06,34.13,0,68.24c0,6.08,1,7.17,7,7.66,21.61,1.77,38.2,15.85,41.84,35.53a43.25,43.25,0,0,1-42,51.08c-23.87.21-47.74.1-71.61,0-2.79,0-3.82.77-4.29,3.53a55.7,55.7,0,0,1-45.59,45.3c-.84.14-1.78,0-2.41.76Zm6.09-74.28H302.79c10.38-.19,18.45-7.34,19.09-16.9.69-10.2-6.17-18.45-16.71-20-3-.43-6-.36-8.92-1-14.18-3-23.76-14.8-23.81-29.58q-.15-35.62,0-71.24a104.56,104.56,0,0,0-6.9-38.1C244.9,79,185.41,53.17,133.32,76.78c-37.26,16.9-57.31,47-58.81,88.08-1,25.71-.15,51.48-.24,77.23,0,15-9.68,26.94-24,29.82-3.16.64-6.48.52-9.67,1.06-13.27,2.27-20.11,16.63-13.2,27.75,4,6.39,10,9,17.43,9Q109.14,309.68,173.44,309.72Zm.05,24.75c-9.11,0-18.23.09-27.35-.05-2.72,0-3.1.68-2.31,3.2a31,31,0,0,0,58.95.28c1-3.07.18-3.53-2.68-3.48C191.23,334.57,182.36,334.47,173.49,334.47ZM188.37,44.41c1.65.47,2.47-.34,2.45-2.74-.07-9.11-8.11-16.93-17.54-16.89s-17.4,7.92-17.38,17c0,2,.39,2.86,2.72,2.58A113.06,113.06,0,0,1,188.37,44.41Z"/></g></g></svg>