<svg xmlns="http://www.w3.org/2000/svg" viewBox="0 0 352.58 192.44"><defs><style>.cls-1{fill:#79c471;}</style></defs><g id="Capa_2" data-name="Capa 2"><g id="Capa_1-2" data-name="Capa 1"><path class="cls-1" d="M297.67,113c-2.35-1.12-3.86-.77-5.32-.77q-137.24,0-274.49,0c-9.52,0-14.79-3.39-17.08-10.92C-2.4,90.81,4.42,81,15.35,80.35c1.62-.09,3.25-.07,4.87-.07H297c-.16-2-1.53-2.6-2.42-3.5Q270.28,52.5,246,28.3c-4.71-4.68-6.9-10-5-16.62A16,16,0,0,1,266.86,4c1.23,1.06,2.35,2.25,3.49,3.4l75.8,75.87c8.53,8.54,8.58,17.37.15,25.82-26,26-52,51.92-77.86,78-10.65,10.77-25,3.71-27.72-7.29-1.58-6.26.77-11.2,5.12-15.54Q270,140.17,294.12,116C295.08,115.06,296.19,114.25,297.67,113Z"/></g></g></svg>