<svg xmlns="http://www.w3.org/2000/svg" viewBox="0 0 384 288.2"><defs><style>.cls-1{fill:#fff;}</style></defs><g id="Capa_2" data-name="Capa 2"><g id="Capa_1-2" data-name="Capa 1"><path class="cls-1" d="M0,19.53c1.11-1,1-2.5,1.45-3.75A23.94,23.94,0,0,1,23.58.07C33-.06,42.33,0,51.71,0h303c17.41,0,23.14,4,29.3,20.25v7.5a56.82,56.82,0,0,1-2.6,7c-4.35,8.33-11.34,12.71-20.72,13.26-1.49.09-3,0-4.49,0C247.57,48,139,47.89,30.34,48.2,15.25,48.24,4.69,43.46,0,28.53Z"/><path class="cls-1" d="M384,147.78a56.82,56.82,0,0,1-2.6,7c-4.35,8.33-11.34,12.71-20.72,13.26-1.49.09-3,0-4.49,0-108.62,0-217.24-.14-325.85.17-15.09,0-25.65-4.74-30.34-19.67v-9c1.12-1.14,1-2.74,1.57-4.1a24.2,24.2,0,0,1,21.64-15.37c1.5,0,3,0,4.5,0h327c17.39,0,23.14,4,29.3,20.25Z"/><path class="cls-1" d="M384,267.78a56.82,56.82,0,0,1-2.6,7c-4.35,8.33-11.34,12.71-20.72,13.26-1.49.09-3,0-4.49,0-108.62,0-217.24-.14-325.85.17-15.09,0-25.65-4.74-30.34-19.67v-9c1.11-1,1-2.49,1.45-3.74a24.1,24.1,0,0,1,21.76-15.73c1.5-.05,3,0,4.5,0h327c17.39,0,23.14,4,29.3,20.25Z"/></g></g></svg>