<svg xmlns="http://www.w3.org/2000/svg" viewBox="0 0 381 408.79"><defs><style>.cls-1{fill:#fff;}</style></defs><g id="Capa_2" data-name="Capa 2"><g id="Capa_1-2" data-name="Capa 1"><path class="cls-1" d="M11.64,408.79C2.35,405.36-.29,398.46,0,389,.79,366.2,4.15,344,13,322.85c14.19-34.11,38.93-57.82,72.27-73,24-10.93,49.46-16,75.57-18.24a338.69,338.69,0,0,1,73.27,1.47c31.34,4.12,61.09,12.88,87.28,31.36,29.94,21.14,47.44,50.32,55.17,85.77C379.31,363,380.29,376,381,389c.48,9.48-2.32,16.37-11.61,19.8ZM190.37,379H345.62c5,0,5,0,4.44-5.11a142.9,142.9,0,0,0-7.26-33.41c-6.2-17.47-15.94-32.65-30-44.9-20.53-17.86-45.09-26.63-71.35-31.3-24.88-4.42-50-5-75.14-3.23-23.21,1.63-45.87,5.75-67.3,15.18-17.29,7.62-32.33,18.3-44,33.35-15,19.33-21.71,41.69-24.22,65.65-.38,3.62,1.16,3.82,4,3.81Q112.54,379,190.37,379Z"/><path class="cls-1" d="M289.46,104.15c-1.19,32.82-14.2,62.3-42.15,84.62-29.73,23.75-74.63,26.34-106.07,5.08C102.5,167.65,87.4,130.36,93,84.6c3.36-27.41,16.6-49.71,39.05-66C153.63,2.9,178-2.44,204.24,1c28.35,3.72,51.08,17.31,67.44,40.9C284.12,59.84,289.35,80.06,289.46,104.15ZM121.37,98.76c.27,22.29,6.42,40.35,19.45,56.05,24.43,29.45,68.14,31.71,95,4.53,19.46-19.71,26.81-43.75,22.62-70.89-8-51.75-62-71.9-102.28-49.91C131.88,51.76,122.15,74,121.37,98.76Z"/></g></g></svg>