<svg xmlns="http://www.w3.org/2000/svg" viewBox="0 0 352.1 352.06"><defs><style>.cls-1{fill:#fff;}</style></defs><g id="Capa_2" data-name="Capa 2"><g id="Capa_1-2" data-name="Capa 1"><path class="cls-1" d="M176.09,352.06C80,352.52.31,273.42,0,177.24A176.25,176.25,0,0,1,176,0C272.16-.53,351.84,78.93,352.1,175.66,352.35,272.86,273.79,351.6,176.09,352.06Zm.06-320c-79.42,0-144.07,64.43-144.1,143.6,0,79.71,64.36,144.42,143.68,144.4a144.26,144.26,0,0,0,144.32-144.2C320.08,96.68,255.41,32.05,176.15,32.06Z"/><path class="cls-1" d="M160.15,128.08c0-16.24-.12-32.48,0-48.72a15.47,15.47,0,0,1,13.55-15.08c8.21-1,15.31,3.61,17.63,11.3a24,24,0,0,1,.6,7.06c0,27.48.05,55-.06,82.45a9.16,9.16,0,0,0,2.92,7.21c13.26,13.07,26.36,26.29,39.54,39.43,4.39,4.37,6.45,9.5,5,15.63a15.88,15.88,0,0,1-26.26,8.32c-3.54-3.15-6.77-6.66-10.13-10-12.28-12.28-24.5-24.62-36.86-36.8a19.21,19.21,0,0,1-6.11-14.69c.18-15.37.06-30.73.06-46.1Z"/></g></g></svg>