<?xml version="1.0" standalone="no"?>
<!DOCTYPE svg PUBLIC "-//W3C//DTD SVG 20010904//EN"
 "http://www.w3.org/TR/2001/REC-SVG-20010904/DTD/svg10.dtd">
<svg version="1.0" xmlns="http://www.w3.org/2000/svg"
 width="2000.000000pt" height="2000.000000pt" viewBox="0 0 2000.000000 2000.000000"
 preserveAspectRatio="xMidYMid meet">

<g transform="translate(0.000000,2000.000000) scale(0.100000,-0.100000)"
fill="#ffff" stroke="none">
<path d="M16000 11925 c-175 -30 -246 -50 -401 -111 -188 -74 -441 -223 -546
-322 -53 -49 -55 -75 -9 -132 33 -42 48 -82 61 -163 4 -24 14 -43 31 -53 31
-21 47 -14 134 56 78 63 216 155 247 164 13 4 29 13 35 20 21 20 224 97 325
122 51 13 151 31 221 40 109 15 144 15 252 4 115 -11 150 -17 295 -54 52 -14
229 -91 255 -112 8 -6 29 -19 45 -27 17 -9 50 -34 74 -56 24 -23 46 -41 50
-41 3 0 31 -26 62 -58 65 -65 171 -214 201 -281 12 -25 29 -62 39 -81 21 -42
46 -132 81 -295 19 -85 16 -377 -4 -470 -34 -152 -62 -240 -110 -345 -22 -47
-49 -105 -60 -130 -12 -25 -38 -68 -59 -97 -22 -29 -39 -57 -39 -62 0 -6 -6
-14 -13 -18 -6 -4 -25 -28 -42 -52 -35 -52 -221 -241 -269 -273 -18 -13 -60
-41 -92 -62 -32 -22 -77 -51 -99 -66 -52 -35 -250 -128 -295 -140 -19 -4 -66
-18 -105 -30 -139 -44 -207 -51 -425 -47 -152 3 -217 8 -250 19 -25 9 -85 28
-133 43 -150 46 -305 138 -424 250 -35 33 -69 65 -76 71 -6 6 -19 22 -27 34
-8 13 -25 35 -37 50 -13 15 -23 33 -23 38 0 6 -6 17 -13 24 -23 23 -100 170
-121 232 -26 73 -66 105 -110 85 -14 -7 -26 -16 -26 -21 0 -16 -55 -65 -95
-86 -22 -11 -59 -25 -82 -31 -32 -9 -47 -20 -59 -43 -19 -36 -15 -48 69 -213
56 -111 106 -188 166 -255 57 -64 57 -64 74 -96 8 -16 52 -61 98 -99 46 -39
99 -85 119 -103 19 -17 43 -35 54 -38 10 -3 46 -24 79 -45 33 -22 65 -39 70
-39 5 0 46 -18 91 -39 44 -22 101 -45 126 -51 25 -6 68 -18 95 -26 58 -16 126
-31 205 -45 71 -12 426 -12 505 0 97 15 219 42 230 51 5 4 26 11 45 15 108 21
348 137 511 246 239 159 285 201 514 465 6 6 17 22 25 34 28 42 68 95 87 115
11 11 37 52 58 90 22 39 47 84 56 100 46 82 63 118 98 210 21 55 42 116 45
135 4 19 11 46 16 60 32 96 64 359 62 505 -2 107 -31 334 -51 390 -5 17 -20
64 -32 105 -39 134 -147 335 -262 484 -84 111 -262 264 -402 348 -186 111
-336 166 -560 203 -103 18 -453 18 -555 0z"/>
<path d="M8870 11833 c0 -4 -9 -64 -20 -133 -35 -210 -102 -631 -131 -810 -10
-69 -26 -165 -34 -215 -8 -49 -23 -146 -34 -215 -26 -160 -76 -474 -125 -780
-33 -207 -63 -388 -87 -540 -11 -69 -28 -179 -39 -245 -57 -351 -70 -433 -70
-443 0 -9 86 -12 333 -12 l333 0 33 208 c18 114 41 259 51 322 58 359 98 613
121 754 11 71 22 133 26 139 5 9 24 -24 175 -313 39 -74 144 -272 233 -440 89
-168 197 -374 241 -458 43 -83 84 -151 91 -150 7 2 155 172 329 378 175 206
356 420 403 476 48 55 165 193 261 307 96 114 176 203 178 198 2 -6 -47 -320
-107 -699 -61 -380 -111 -697 -111 -706 0 -14 34 -16 335 -16 l335 0 0 22 c0
21 525 3311 535 3356 4 18 1 22 -17 21 -16 0 -45 -26 -93 -81 -38 -45 -214
-244 -390 -443 -176 -199 -468 -530 -650 -735 -694 -785 -815 -921 -822 -922
-4 0 -40 55 -79 123 -76 133 -596 1052 -947 1674 -167 297 -219 381 -235 383
-12 2 -22 0 -22 -5z"/>
<path d="M5550 11785 c-19 -8 -75 -26 -125 -40 -49 -15 -117 -35 -150 -45 -33
-10 -94 -28 -135 -40 -41 -12 -93 -27 -115 -35 -22 -7 -80 -25 -130 -40 -88
-26 -177 -55 -183 -61 -2 -1 -12 -58 -23 -126 -26 -166 -57 -360 -69 -433 -21
-128 -21 -125 3 -115 12 5 74 23 137 39 63 17 139 38 168 47 30 9 56 13 59 10
3 -3 -2 -51 -10 -108 -9 -57 -25 -161 -36 -232 -11 -71 -23 -132 -28 -137 -4
-4 -162 -9 -351 -11 l-343 -3 -29 -34 c-66 -74 -23 -181 72 -181 24 0 48 -4
54 -10 6 -6 121 -11 284 -12 237 -3 275 -5 273 -18 -1 -8 -4 -32 -8 -52 l-6
-38 -525 0 c-523 0 -525 0 -554 -22 -57 -42 -64 -127 -13 -180 l27 -28 514 0
514 0 -7 -57 c-4 -32 -9 -61 -12 -65 -2 -5 -166 -8 -364 -8 l-361 0 -29 -29
c-25 -25 -29 -37 -29 -85 0 -51 2 -57 37 -85 l38 -31 337 0 337 0 -6 -37 c-15
-95 -3 -88 -149 -90 -71 -2 -138 -5 -150 -8 -12 -2 -33 -22 -47 -43 -26 -36
-26 -40 -14 -82 21 -73 56 -90 187 -90 59 0 109 -2 111 -5 7 -6 -16 -158 -89
-612 l-18 -113 328 0 c180 0 328 4 328 9 0 4 7 46 15 92 8 46 24 145 35 219
12 74 31 189 41 255 11 66 29 179 40 250 21 133 46 290 79 495 10 63 28 174
39 245 12 72 30 184 40 250 11 66 29 183 41 260 11 77 23 147 25 155 2 8 14
76 25 150 35 220 60 377 80 505 11 66 27 165 35 220 8 55 19 125 26 155 23
113 33 100 -83 99 -59 -1 -118 -7 -138 -14z"/>
<path d="M2200 11753 c0 -5 -23 -147 -50 -318 -27 -170 -50 -316 -50 -322 0
-10 88 -13 405 -13 359 0 405 -2 405 -15 0 -13 -191 -1217 -301 -1895 -28
-177 -56 -349 -79 -497 -11 -71 -25 -152 -30 -182 -6 -30 -10 -58 -10 -63 0
-4 151 -8 335 -8 l334 0 6 33 c3 17 17 104 30 192 14 88 37 230 51 315 53 330
98 614 124 778 11 70 27 168 35 217 8 50 23 146 34 215 83 522 122 761 135
835 l12 70 410 5 409 5 3 25 c5 36 92 592 96 613 4 16 -56 17 -1150 17 -635 0
-1154 -3 -1154 -7z"/>
<path d="M6341 11618 c-20 -131 -49 -306 -101 -635 -11 -68 -29 -178 -40 -245
-30 -190 -57 -356 -89 -558 -17 -102 -49 -302 -71 -445 -62 -391 -108 -676
-140 -875 -11 -69 -29 -183 -41 -255 -11 -71 -22 -138 -25 -147 -5 -17 47 -18
999 -18 l1004 0 17 108 c56 351 77 481 82 515 l6 37 -667 0 -668 0 6 38 c3 20
17 111 32 202 14 91 35 221 46 290 10 69 22 133 25 142 5 17 44 18 577 20
l571 3 47 295 c26 162 50 310 53 328 l5 32 -568 0 c-312 0 -570 2 -573 5 -3 3
-2 25 3 48 4 23 22 132 39 242 18 110 37 234 44 275 l12 75 667 3 667 2 5 23
c4 20 41 246 80 492 9 55 18 110 21 122 l6 23 -1004 0 -1004 0 -23 -142z"/>
<path d="M12686 11748 c-3 -7 -37 -215 -76 -463 -39 -247 -82 -520 -96 -605
-14 -85 -33 -209 -44 -275 -38 -235 -60 -372 -84 -525 -14 -85 -53 -326 -86
-535 -33 -209 -67 -420 -75 -470 -51 -313 -65 -406 -65 -419 0 -14 38 -16 335
-16 l335 0 0 22 c0 12 11 91 25 177 25 151 43 262 86 536 12 72 29 177 38 235
l18 105 354 6 c315 5 363 8 434 27 274 71 483 190 681 387 123 123 178 196
252 335 96 181 135 337 135 540 0 159 -22 265 -83 397 -125 268 -329 434 -646
524 -78 22 -90 23 -757 26 -550 3 -678 2 -681 -9z m1159 -659 c133 -24 241
-103 296 -215 83 -168 29 -378 -136 -532 -69 -65 -191 -132 -275 -151 -25 -6
-175 -11 -338 -11 l-292 0 5 23 c2 12 13 78 24 147 11 69 29 181 40 250 12 69
32 197 46 285 14 88 28 172 31 188 l6 27 267 0 c148 0 293 -5 326 -11z"/>
<path d="M16115 11203 c-41 -21 -84 -62 -103 -98 -25 -48 -68 -321 -97 -630
-8 -82 -19 -166 -25 -186 -5 -20 -13 -70 -16 -111 -6 -69 -5 -78 21 -121 15
-26 32 -50 39 -55 6 -4 53 -56 105 -117 51 -60 107 -126 125 -145 17 -19 48
-55 67 -80 69 -86 233 -265 263 -287 23 -18 43 -23 88 -23 76 0 123 24 167 85
68 95 52 177 -61 309 -253 294 -338 390 -376 424 l-37 34 3 85 c1 47 7 93 12
103 6 10 10 40 10 67 1 26 8 98 16 158 36 267 43 335 43 405 1 66 -3 82 -26
117 -47 73 -148 103 -218 66z"/>
<path d="M3859 9359 c-52 -56 -34 -141 38 -178 13 -6 77 -11 160 -11 164 0
192 11 215 81 13 39 13 46 -4 81 -10 20 -27 42 -37 48 -11 6 -89 10 -181 10
l-162 0 -29 -31z"/>
</g>
</svg>
